<svg width="136" height="136" viewBox="0 0 136 136" fill="none" xmlns="http://www.w3.org/2000/svg">
<g filter="url(#filter0_d_37_11)">
<circle cx="68" cy="64" r="64" fill="white"/>
<path d="M68.0005 98L94.4582 82.4862L84.3172 76.5306L73.9494 82.6124C73.8611 82.6618 73.7618 82.6872 73.661 82.6864C73.5602 82.6856 73.4613 82.6585 73.3737 82.6078C73.2863 82.556 73.2136 82.4821 73.1627 82.3933C73.1117 82.3045 73.0843 82.2039 73.0831 82.1011V67.6572C73.0831 67.2316 73.3 66.8466 73.6629 66.6346L85.9824 59.41C86.0701 59.3592 86.1695 59.3329 86.2706 59.3337C86.3716 59.3345 86.4706 59.3625 86.5575 59.4147C86.7377 59.516 86.8503 59.7078 86.8523 59.9167V72.0752L97 78.0271V47L68 63.9979L68.0005 98Z" fill="black"/>
<path d="M62.065 82.6194L51.6886 76.5303L41.5365 82.4853L68 98V63.9983L39 47V78.0253L49.1485 72.0755V59.9181C49.1531 59.7097 49.2637 59.518 49.4414 59.4161C49.5289 59.3639 49.6284 59.3359 49.73 59.3351C49.8315 59.3343 49.9315 59.3606 50.0198 59.4115L62.3496 66.6349C62.5262 66.7389 62.6727 66.8883 62.7745 67.068C62.8763 67.2476 62.9298 67.4513 62.9296 67.6586V82.1044C62.9284 82.2073 62.9012 82.3082 62.8505 82.3974C62.7999 82.4866 62.7275 82.561 62.6403 82.6136C62.5533 82.6655 62.4544 82.6934 62.3535 82.6945C62.2525 82.6955 62.1531 82.6698 62.065 82.6199" fill="#4D4D4D"/>
<path d="M70.5395 33V44.3464L80.9098 50.142C81.088 50.2426 81.1939 50.4274 81.1939 50.6296C81.1939 50.8292 81.0854 51.0121 80.9098 51.1126L68.5832 58.0057C68.4061 58.1029 68.2059 58.154 68.0023 58.154C67.7987 58.154 67.5985 58.1029 67.4214 58.0057L55.0983 51.1126C55.0109 51.0637 54.9383 50.9932 54.888 50.9084C54.8377 50.8235 54.8114 50.7274 54.8117 50.6296C54.8108 50.531 54.8369 50.434 54.8872 50.3484C54.9375 50.2628 55.0104 50.1916 55.0983 50.142L65.4667 44.3464V33L39 47.7925L67.9967 64L97 47.793L70.5395 33Z" fill="#808080"/>
<path d="M42.2541 19C37.7903 19 33.5094 20.6506 30.353 23.5887C27.1967 26.5267 25.4234 30.5116 25.4234 34.6667V50.3725C25.4234 54.5242 25.3561 56.5922 24.6661 58.1823C24.1443 59.4043 23.0335 60.7752 19.3308 62.4907C18.6306 62.8155 18.0416 63.3156 17.6298 63.9348C17.2181 64.5541 17 65.2679 17 65.9961C17 66.7243 17.2181 67.4381 17.6298 68.0573C18.0416 68.6766 18.6306 69.1767 19.3308 69.5015C23.0335 71.2248 24.1443 72.5957 24.6745 73.8177C25.3561 75.4157 25.4234 77.4993 25.4234 81.6667V97.3333C25.4234 101.488 27.1967 105.473 30.353 108.411C33.5094 111.349 37.7903 113 42.2541 113C43.37 113 44.4402 112.587 45.2293 111.853C46.0184 111.118 46.4617 110.122 46.4617 109.083C46.4617 108.045 46.0184 107.048 45.2293 106.314C44.4402 105.579 43.37 105.167 42.2541 105.167C40.0222 105.167 37.8817 104.341 36.3035 102.872C34.7254 101.403 33.8388 99.4109 33.8388 97.3333V81.2045C33.8388 77.6873 33.8388 74.0762 32.4923 70.9115C31.6787 69.0318 30.4118 67.3514 28.7896 66C30.439 64.59 31.6676 62.992 32.4923 61.0963C33.8388 57.9395 33.8388 54.3283 33.8388 50.8268V34.6667C33.8388 32.5891 34.7254 30.5967 36.3035 29.1277C37.8817 27.6586 40.0222 26.8333 42.2541 26.8333C43.37 26.8333 44.4402 26.4207 45.2293 25.6862C46.0184 24.9517 46.4617 23.9554 46.4617 22.9167C46.4617 21.8779 46.0184 20.8817 45.2293 20.1472C44.4402 19.4126 43.37 19 42.2541 19ZM92.7459 19C97.2097 19 101.491 20.6506 104.647 23.5887C107.803 26.5267 109.577 30.5116 109.577 34.6667V50.3725C109.577 54.5242 109.644 56.5922 110.334 58.1823C110.856 59.4043 111.966 60.7752 115.669 62.4907C116.369 62.8155 116.958 63.3156 117.37 63.9348C117.782 64.5541 118 65.2679 118 65.9961C118 66.7243 117.782 67.4381 117.37 68.0573C116.958 68.6766 116.369 69.1767 115.669 69.5015C111.966 71.2248 110.856 72.5957 110.326 73.8177C109.644 75.4157 109.577 77.4993 109.577 81.6667V97.3333C109.577 101.488 107.803 105.473 104.647 108.411C101.491 111.349 97.2097 113 92.7459 113C91.63 113 90.5598 112.587 89.7707 111.853C88.9816 111.118 88.5383 110.122 88.5383 109.083C88.5383 108.045 88.9816 107.048 89.7707 106.314C90.5598 105.579 91.63 105.167 92.7459 105.167C94.9778 105.167 97.1183 104.341 98.6964 102.872C100.275 101.403 101.161 99.4109 101.161 97.3333V81.2045C101.161 77.6873 101.161 74.0762 102.508 70.9115C103.322 69.0321 104.589 67.3518 106.21 66C104.589 64.651 103.322 62.9733 102.508 61.0963C101.161 57.9395 101.161 54.3283 101.161 50.8268V34.6667C101.161 32.5891 100.275 30.5967 98.6964 29.1277C97.1183 27.6586 94.9778 26.8333 92.7459 26.8333C91.63 26.8333 90.5598 26.4207 89.7707 25.6862C88.9816 24.9517 88.5383 23.9554 88.5383 22.9167C88.5383 21.8779 88.9816 20.8817 89.7707 20.1472C90.5598 19.4126 91.63 19 92.7459 19Z" fill="black"/>
</g>
<defs>
<filter id="filter0_d_37_11" x="0" y="0" width="136" height="136" filterUnits="userSpaceOnUse" color-interpolation-filters="sRGB">
<feFlood flood-opacity="0" result="BackgroundImageFix"/>
<feColorMatrix in="SourceAlpha" type="matrix" values="0 0 0 0 0 0 0 0 0 0 0 0 0 0 0 0 0 0 127 0" result="hardAlpha"/>
<feOffset dy="4"/>
<feGaussianBlur stdDeviation="2"/>
<feComposite in2="hardAlpha" operator="out"/>
<feColorMatrix type="matrix" values="0 0 0 0 0 0 0 0 0 0 0 0 0 0 0 0 0 0 0.25 0"/>
<feBlend mode="normal" in2="BackgroundImageFix" result="effect1_dropShadow_37_11"/>
<feBlend mode="normal" in="SourceGraphic" in2="effect1_dropShadow_37_11" result="shape"/>
</filter>
</defs>
</svg>
